<svg xmlns="http://www.w3.org/2000/svg" width="900" height="900" viewBox="0 0 900 900">
    <defs>
      <linearGradient id="g" x1="0" y1="0" x2="1" y2="1">
        <stop offset="0%" stop-color="#20374d"/>
        <stop offset="100%" stop-color="#11324d"/>
      </linearGradient>
      <radialGradient id="r" cx="70%" cy="25%" r="70%">
        <stop offset="0%" stop-color="#2fb1fc" stop-opacity=".32"/>
        <stop offset="100%" stop-color="#2fb1fc" stop-opacity="0"/>
      </radialGradient>
      <filter id="blur"><feGaussianBlur stdDeviation="25"/></filter>
    </defs>
    <rect width="900" height="900" fill="url(#g)"/>
    <rect width="900" height="900" fill="url(#r)"/>
    <circle cx="160" cy="170" r="90" fill="#2fb1fc" opacity=".12" filter="url(#blur)"/>
    <circle cx="760" cy="190" r="140" fill="#ffffff" opacity=".08" filter="url(#blur)"/>
    <circle cx="680" cy="700" r="220" fill="#000000" opacity=".08" filter="url(#blur)"/>
    <g opacity=".18" fill="#ffffff">
      <circle cx="80" cy="80" r="6"/><circle cx="150" cy="110" r="4"/><circle cx="230" cy="70" r="5"/>
      <circle cx="820" cy="90" r="5"/><circle cx="780" cy="140" r="4"/><circle cx="850" cy="210" r="6"/>
    </g>
    <rect x="100" y="610" width="700" height="190" rx="28" fill="#ffffff" opacity=".10"/>
    <g transform="translate(450 370)">
      <rect x="-112" y="-184" width="224" height="52" rx="10" fill="#ffffff" opacity=".18"/>
      <text x="0" y="-150" text-anchor="middle" font-family="Arial, Helvetica, sans-serif" font-size="22" font-weight="700" fill="#ffffff" opacity=".95" letter-spacing="1.2">CONNECTED TECHNOLOGY PLATFORM</text>
      <text x="0" y="-65" text-anchor="middle" font-family="Arial, Helvetica, sans-serif" font-size="54" font-weight="700" fill="#ffffff">
        <tspan x="0" dy="0">Automation systems that reduce</tspan>
        <tspan x="0" dy="64">friction and speed up delivery</tspan>
      </text>
    </g>
    <g transform="translate(650 560)">
      <circle cx="0" cy="0" r="48" fill="#ffffff" opacity=".8"/>
      <circle cx="0" cy="0" r="24" fill="#2fb1fc" opacity=".95"/>
      <rect x="-102" y="-46" width="170" height="96" rx="48" fill="#ffffff" opacity=".22"/>
    </g>
    <g transform="translate(134 530)" opacity=".9">
      <rect x="0" y="0" width="18" height="110" rx="9" fill="#2fb1fc" opacity=".55"/>
      <rect x="28" y="18" width="18" height="92" rx="9" fill="#ffffff" opacity=".20"/>
      <rect x="56" y="36" width="18" height="74" rx="9" fill="#ffffff" opacity=".20"/>
    </g>
    <g opacity=".18" fill="#ffffff">
      <text x="96" y="115" font-family="Arial" font-size="52" font-weight="700">iStock</text>
      <text x="580" y="160" font-family="Arial" font-size="52" font-weight="700">iStock</text>
      <text x="95" y="430" font-family="Arial" font-size="52" font-weight="700">iStock</text>
      <text x="620" y="690" font-family="Arial" font-size="52" font-weight="700">iStock</text>
    </g>
    </svg>